<svg xmlns="http://www.w3.org/2000/svg" xmlns:xlink="http://www.w3.org/1999/xlink" width="400" height="400" viewBox="0 0 400 400">
<rect data-name="background" width="100%" height="100%" fill="none"/><g data-name="icon" fill="#000000" data="id:2921737" transform="translate(126.68407473128939,75.43168202113073) scale(0.48877277918913176)">
    <path d="M260.5,64.3c-17,0-30.8,13.8-30.8,30.8c0,2.4,0.3,4.8,0.8,7l-48.4,20c-4.4-8-11.3-14.5-19.5-18.5l16.7-47.3  c0.6,0.1,1.2,0.1,1.8,0.1c11.1,0,20.2-9.1,20.2-20.2s-9.1-20.2-20.2-20.2s-20.2,9.1-20.2,20.2c0,7,3.6,13.2,9,16.8l-16.8,47.3  c-3.2-0.7-6.6-1.1-10-1.1c-7.1,0-13.8,1.7-19.8,4.6L108,80c5.5-5.1,9-12.5,9-20.6c0-15.5-12.6-28.2-28.2-28.2S60.6,43.9,60.6,59.4  s12.6,28.2,28.2,28.2c3.8,0,7.5-0.8,10.8-2.2l15.3,23.8c-7.4,6-12.8,14.3-15.1,23.9l-59-7.6c-1.4-7.4-8-13.1-15.8-13.1  c-8.9,0-16.1,7.2-16.1,16.1s7.2,16.1,16.1,16.1c6.4,0,11.9-3.8,14.5-9.2l59,7.6c0,0.2,0,0.5,0,0.7c0,10.9,3.9,20.8,10.4,28.6  l-42.7,44.8c-5.5-3.9-12.1-6.1-19.3-6.1c-18.5,0-33.6,15.1-33.6,33.6c0,18.5,15.1,33.6,33.6,33.6s33.6-15.1,33.6-33.6  c0-7.8-2.6-14.9-7.1-20.6l42.7-44.8c6.2,4.7,13.6,7.8,21.7,8.8l-1.5,26.7c-6.6,2-11.3,8.2-11.3,15.4c0,8.9,7.2,16.1,16.1,16.1  c8.9,0,16.1-7.2,16.1-16.1c0-7-4.5-13-10.9-15.2l1.5-26.8c5.4-0.6,10.5-2.1,15.2-4.5l43.2,66.6c-3.3,3.6-5.4,8.4-5.4,13.7  c0,11.1,9.1,20.2,20.2,20.2s20.2-9.1,20.2-20.2c0-11.1-9.1-20.2-20.2-20.2c-2.3,0-4.4,0.4-6.5,1.1l-43.2-66.6  c4.1-3.4,7.7-7.6,10.3-12.3l36.9,16c0,0.5-0.1,1-0.1,1.5c0,8.9,7.2,16.1,16.1,16.1s16.1-7.2,16.1-16.1s-7.2-16.1-16.1-16.1  c-4.8,0-9.1,2.1-12,5.4l-36.9-16c1.3-4.1,1.9-8.5,1.9-13c0-4.3-0.6-8.4-1.7-12.3l48.4-20.1c5.4,8.7,15.1,14.5,26.1,14.5  c17,0,30.8-13.8,30.8-30.8S277.4,64.3,260.5,64.3z M181,26c5.6,0,10.2,4.6,10.2,10.2c0,5.6-4.6,10.2-10.2,10.2s-10.2-4.6-10.2-10.2  S175.4,26,181,26z M70.6,59.4c0-10,8.2-18.2,18.2-18.2S107,49.4,107,59.4s-8.2,18.2-18.2,18.2S70.6,69.4,70.6,59.4z M25,134.6  c-3.4,0-6.1-2.7-6.1-6.1s2.7-6.1,6.1-6.1c3.4,0,6.1,2.7,6.1,6.1S28.4,134.6,25,134.6z M231.3,263.8c0,5.6-4.6,10.2-10.2,10.2  c-5.6,0-10.2-4.6-10.2-10.2s4.6-10.2,10.2-10.2C226.7,253.6,231.3,258,231.3,263.8z M234.7,177.2c3.4,0,6.1,2.7,6.1,6.1  s-2.7,6.1-6.1,6.1s-6.1-2.7-6.1-6.1S231.3,177.2,234.7,177.2z M46.9,268.1c-13,0-23.6-10.6-23.6-23.6c0-13,10.6-23.6,23.6-23.6  s23.6,10.6,23.6,23.6C70.5,257.5,59.9,268.1,46.9,268.1z M141.1,236.1c-3.4,0-6.1-2.7-6.1-6.1s2.7-6.1,6.1-6.1s6.1,2.7,6.1,6.1  S144.5,236.1,141.1,236.1z M143.1,178.3c-19.1,0-34.6-15.5-34.6-34.6s15.5-34.6,34.6-34.6s34.6,15.5,34.6,34.6  S162.2,178.3,143.1,178.3z M260.5,115.8c-11.5,0-20.8-9.3-20.8-20.8s9.3-20.8,20.8-20.8s20.8,9.3,20.8,20.8S271.9,115.8,260.5,115.8  z"/>
    </g><g data-name="business_name" fill="#000000" data="id:325" transform="translate(59.792449539803,213.80121030972526) scale(1.147845632165348)"><path d="M2.32421875,27.734375l8.828125,0l0,0.29296875q0.9375-0.41015625,1.9140625-0.654296875t2.01171875-0.244140625q2.2265625,0,4.140625,0.83984375t3.3203125,2.28515625t2.197265625,3.37890625t0.791015625,4.1015625q0,2.1875-0.771484375,4.12109375t-2.158203125,3.369140625t-3.310546875,2.265625t-4.208984375,0.830078125q-1.2890625,0-2.40234375-0.244140625t-2.1484375-0.693359375l0,4.43359375l3.8671875,0l0,5.3515625l-13.203125,0l0-5.3515625l3.3203125,0l0-18.73046875l-2.1875,0l0-5.3515625z M14.6484375,32.51953125q-1.23046875,0-2.3046875,0.64453125t-1.81640625,1.81640625l0,5.703125q0.625,0.99609375,1.69921875,1.62109375t2.421875,0.625q0.99609375,0,1.89453125-0.380859375t1.5625-1.07421875t1.0546875-1.640625t0.390625-2.060546875q0-1.23046875-0.380859375-2.20703125t-1.044921875-1.650390625t-1.5625-1.03515625t-1.9140625-0.361328125z M27.71484375,27.734375l9.921875,0l0,5.3515625l-1.5625,0l2.91015625,7.578125l2.98828125-7.578125l-1.73828125,0l0-5.3515625l9.921875,0l0,5.3515625l-2.20703125,0l-7.83203125,18.73046875l3.4765625,0l0,5.3515625l-12.55859375,0l0-5.3515625l3.53515625,0l1.5234375-3.84765625l-6.328125-14.8828125l-2.05078125,0l0-5.3515625z M53.1640625,42.6171875l2.75390625,0l0-18.88671875l-2.75390625,0l0-5.37109375l12.1875,0l8.73046875,21.3671875l8.10546875-21.3671875l12.36328125,0l0,5.37109375l-2.75390625,0l0,18.88671875l2.71484375,0l0,5.3515625l-11.07421875,0l0-5.3515625l2.03125,0l0-17.03125l-8.8671875,22.03125l-5.48828125,0l-9.0234375-21.4453125l0,16.4453125l2.20703125,0l0,5.3515625l-11.1328125,0l0-5.3515625z M103.57421875,39.12109375l0.05859375,0.60546875q0.21484375,0.87890625,0.732421875,1.54296875t1.220703125,1.11328125t1.5625,0.673828125t1.73828125,0.224609375t1.669921875-0.107421875t1.533203125-0.29296875t1.4453125-0.4296875t1.42578125-0.517578125l2.1484375,4.00390625q-1.11328125,0.68359375-2.041015625,1.162109375t-1.865234375,0.791015625t-1.9921875,0.458984375t-2.4609375,0.146484375q-2.63671875,0-4.6875-0.869140625t-3.447265625-2.353515625t-2.12890625-3.4765625t-0.732421875-4.21875t0.771484375-4.1796875t2.177734375-3.408203125t3.359375-2.294921875t4.3359375-0.83984375t4.228515625,0.791015625t3.115234375,2.1875t1.953125,3.28125t0.7421875,4.052734375q0.05859375,0.48828125,0.068359375,0.966796875t-0.029296875,0.986328125l-14.90234375,0z M108.2421875,31.73828125q-1.09375,0-1.865234375,0.263671875t-1.298828125,0.72265625t-0.83984375,1.044921875t-0.48828125,1.23046875l8.45703125,0q-0.13671875-0.6640625-0.390625-1.25t-0.703125-1.03515625t-1.142578125-0.712890625t-1.728515625-0.263671875z M129.12109375,27.734375l4.04296875,0l0,5.1171875l-4.08203125,0l-0.0390625,8.5546875q0,0.7421875,0.1171875,1.201171875t0.341796875,0.732421875t0.537109375,0.37109375t0.72265625,0.09765625q0.7421875,0,1.30859375-0.146484375t1.1328125-0.341796875l0.83984375,3.76953125q-0.99609375,0.625-2.216796875,0.99609375t-2.900390625,0.37109375q-1.19140625,0-2.275390625-0.41015625t-1.904296875-1.240234375t-1.30859375-2.080078125t-0.46875-2.91015625l0.05859375-8.96484375l-2.91015625,0l0-5.1171875l2.9296875,0l0.0390625-4.84375l6.07421875-2.890625z M149.55078125,46.875q-0.68359375,0.4296875-1.25,0.732421875t-1.1328125,0.48828125t-1.171875,0.2734375t-1.328125,0.087890625q-1.81640625,0-3.251953125-0.498046875t-2.421875-1.3671875t-1.513671875-2.05078125t-0.52734375-2.568359375q0-1.40625,0.537109375-2.59765625t1.552734375-2.041015625t2.490234375-1.328125t3.369140625-0.478515625q1.38671875,0,2.529296875,0.146484375t2.119140625,0.361328125l0-0.625q0-0.76171875-0.29296875-1.318359375t-0.8203125-0.91796875t-1.26953125-0.52734375t-1.62109375-0.166015625q-1.8359375,0-3.232421875,0.361328125t-2.685546875,1.044921875l-1.875-3.7890625q1.9921875-1.3671875,4.169921875-2.08984375t4.619140625-0.72265625q1.89453125,0,3.505859375,0.419921875t2.763671875,1.3671875t1.806640625,2.470703125t0.654296875,3.7109375l0,7.36328125l2.71484375,0l0,5.3515625l-8.4375,0l0-1.09375z M145.09765625,43.84765625q1.38671875,0,2.51953125-0.44921875t1.93359375-1.09375l0-2.578125l-4.6875,0q-0.44921875,0-0.87890625,0.13671875t-0.771484375,0.390625t-0.546875,0.625t-0.205078125,0.859375q0,0.8984375,0.654296875,1.50390625t1.982421875,0.60546875z M184.21875,47.96875l0-5.078125q-1.2109375,2.12890625-2.36328125,3.125t-2.607421875,1.6015625t-3.896484375,0.5859375q-1.2109375-0.01953125-2.421875-0.283203125t-2.34375-0.7421875t-2.216796875-1.15234375t-1.962890625-1.552734375q-2.16796875-2.1875-3.369140625-5.068359375t-1.201171875-6.279296875q0-2.08984375,0.5078125-4.04296875t1.42578125-3.65234375t2.216796875-3.095703125t2.890625-2.392578125t3.427734375-1.54296875t3.84765625-0.546875q2.3046875,0,4.00390625,0.615234375t3.65234375,2.294921875l4.375,0l0,6.6015625l-6.03515625,0q-0.8984375-1.38671875-1.689453125-2.01171875t-1.71875-1.03515625t-2.587890625-0.41015625q-1.640625,0-3.046875,0.7421875t-2.431640625,2.001953125t-1.611328125,2.96875t-0.5859375,3.505859375q0,1.77734375,0.52734375,3.37890625t1.6015625,2.880859375t2.5,1.962890625t3.046875,0.68359375q2.0703125,0,3.61328125-1.2109375t2.2265625-3.30078125l-5.64453125,0l0-5.3515625l13.7109375,0l0,15.80078125l-5.83984375,0z M199.31640625,39.12109375l0.05859375,0.60546875q0.21484375,0.87890625,0.732421875,1.54296875t1.220703125,1.11328125t1.5625,0.673828125t1.73828125,0.224609375t1.669921875-0.107421875t1.533203125-0.29296875t1.4453125-0.4296875t1.42578125-0.517578125l2.1484375,4.00390625q-1.11328125,0.68359375-2.041015625,1.162109375t-1.865234375,0.791015625t-1.9921875,0.458984375t-2.4609375,0.146484375q-2.63671875,0-4.6875-0.869140625t-3.447265625-2.353515625t-2.12890625-3.4765625t-0.732421875-4.21875t0.771484375-4.1796875t2.177734375-3.408203125t3.359375-2.294921875t4.3359375-0.83984375t4.228515625,0.791015625t3.115234375,2.1875t1.953125,3.28125t0.7421875,4.052734375q0.05859375,0.48828125,0.068359375,0.966796875t-0.029296875,0.986328125l-14.90234375,0z M203.984375,31.73828125q-1.09375,0-1.865234375,0.263671875t-1.298828125,0.72265625t-0.83984375,1.044921875t-0.48828125,1.23046875l8.45703125,0q-0.13671875-0.6640625-0.390625-1.25t-0.703125-1.03515625t-1.142578125-0.712890625t-1.728515625-0.263671875z M233.8671875,36.328125q0-1.69921875-0.8984375-2.666015625t-2.3828125-0.966796875q-1.015625,0-2.05078125,0.44921875t-2.01171875,1.6796875l0,7.79296875l3.28125,0l0,5.3515625l-12.578125,0l0-5.3515625l2.96875,0l0-9.53125l-2.9296875,0l0-5.3515625l9.21875,0l0,1.77734375q1.26953125-0.99609375,2.841796875-1.572265625t3.310546875-0.576171875q3.65234375,0,5.625,2.041015625t1.97265625,5.966796875l0,7.24609375l2.87109375,0l0,5.3515625l-9.23828125,0l0-11.640625z"/></g><g data-name="slogan" fill="#000000" data="id:169" transform="translate(71.7618372328383,277.23941334674976) scale(0.6859121641573903)"><path d="M8.52,19.68l9.6,22.2l0.08,0l9.68-22.2l4.88,0l0,28.32l-3.36,0l0-23.76l-0.08,0l-10.16,23.76l-2.04,0l-10.16-23.76l-0.08,0l0,23.76l-3.36,0l0-28.32l5,0z M47.76,28.8q4.16,0,6.5,2.62t2.38,7.42l0,0.76l-15.12,0q0.24,2.6,1.96,4.28t4.2,1.72q3.8,0,5.92-2.84l2.36,1.84q-1.48,1.92-3.48,2.9t-4.8,0.98q-4.28,0-6.88-2.78t-2.64-7.06q0-4.24,2.66-7t6.94-2.84z M53.28,36.96q-0.12-2.44-1.58-3.86t-4.1-1.42q-2.4,0-4.04,1.36t-2.04,3.92l11.76,0z M66.2,23.96l0,5.32l5.52,0l0,2.64l-5.52,0l0,10q0,2.24,0.72,2.96t2.08,0.72q1.56,0,2.76-0.64l0.12,2.84q-1.6,0.68-3.64,0.68q-2.88,0-4.02-1.42t-1.14-4.66l0-10.48l-4.08,0l0-2.64l4.08,0l0-5.32l3.12,0z M82.76,28.8q4.08,0,5.94,1.92t1.9,5.8l0,8.4q0,1.2,0.28,3.08l-3,0q-0.2-0.36-0.2-2.8l-0.08,0q-2.12,3.2-6.16,3.28q-3.08,0-5.02-1.54t-1.94-4.02q0-3.4,2.8-4.98t8.76-1.58l1.44,0l0-0.52q0-4.08-4.64-4.16q-3.36,0-5.56,2.04l-1.96-2.04q2.88-2.8,7.44-2.88z M77.84,42.6q0,3.16,4.12,3.24q2.44,0,3.98-1.56t1.54-4.56l0-0.72l-3.44,0q-2.76,0-4.46,0.88t-1.74,2.72z M115,17.76l0,30.24l-3.12,0l0-3.32l-0.08,0q-0.96,1.8-2.92,2.8t-4.28,1q-3.96,0-6.62-2.82t-2.74-7.02q0-4.28,2.74-7.04t7.1-2.8q4.04,0,6.72,3.2l0.08,0l0-14.24l3.12,0z M98.6,38.64q0,3.08,1.86,5t4.78,1.96q2.92,0,4.74-1.92t1.9-5.04q0-3.04-1.86-5t-4.82-1.96q-2.88,0-4.7,1.94t-1.9,5.02z M127.96,28.8q4.08,0,5.94,1.92t1.9,5.8l0,8.4q0,1.2,0.28,3.08l-3,0q-0.2-0.36-0.2-2.8l-0.08,0q-2.12,3.2-6.16,3.28q-3.08,0-5.02-1.54t-1.94-4.02q0-3.4,2.8-4.98t8.76-1.58l1.44,0l0-0.52q0-4.08-4.64-4.16q-3.36,0-5.56,2.04l-1.96-2.04q2.88-2.8,7.44-2.88z M123.04,42.6q0,3.16,4.12,3.24q2.44,0,3.98-1.56t1.54-4.56l0-0.72l-3.44,0q-2.76,0-4.46,0.88t-1.74,2.72z M146.24,23.96l0,5.32l5.52,0l0,2.64l-5.52,0l0,10q0,2.24,0.72,2.96t2.08,0.72q1.56,0,2.76-0.64l0.12,2.84q-1.6,0.68-3.64,0.68q-2.88,0-4.02-1.42t-1.14-4.66l0-10.48l-4.08,0l0-2.64l4.08,0l0-5.32l3.12,0z M162.8,28.8q4.08,0,5.94,1.92t1.9,5.8l0,8.4q0,1.2,0.28,3.08l-3,0q-0.2-0.36-0.2-2.8l-0.08,0q-2.12,3.2-6.16,3.28q-3.08,0-5.02-1.54t-1.94-4.02q0-3.4,2.8-4.98t8.76-1.58l1.44,0l0-0.52q0-4.08-4.64-4.16q-3.36,0-5.56,2.04l-1.96-2.04q2.88-2.8,7.44-2.88z M157.88,42.6q0,3.16,4.12,3.24q2.44,0,3.98-1.56t1.54-4.56l0-0.72l-3.44,0q-2.76,0-4.46,0.88t-1.74,2.72z  M196.32,28.8q2.16,0,3.98,1t2.66,2.68l0.08,0l0-3.2l3.12,0l0,18.08q0,4.8-2.56,7.48t-7.64,2.76q-2.76,0-5-0.8t-4.2-2.76l2.24-2.56q3,3.24,6.96,3.24q7.08,0,7.08-7.52l0-2.44l-0.08,0q-1.04,1.68-2.88,2.58t-3.76,0.9q-4.32,0-7.08-2.7t-2.84-6.9q0-4.52,2.72-7.16t7.2-2.68z M189.76,38.64q0,2.8,1.92,4.74t4.68,1.98q3.04,0,4.86-1.96t1.82-4.84q0-3.08-1.86-4.96t-4.86-1.92q-2.84,0-4.7,2t-1.86,4.96z M220.44,28.8q4.16,0,6.5,2.62t2.38,7.42l0,0.76l-15.12,0q0.24,2.6,1.96,4.28t4.2,1.72q3.8,0,5.92-2.84l2.36,1.84q-1.48,1.92-3.48,2.9t-4.8,0.98q-4.28,0-6.88-2.78t-2.64-7.06q0-4.24,2.66-7t6.94-2.84z M225.96,36.96q-0.12-2.44-1.58-3.86t-4.1-1.42q-2.4,0-4.04,1.36t-2.04,3.92l11.76,0z M243.36,28.8q3.52,0,5.32,2.04t1.8,5.44l0,11.72l-3.12,0l0-11.36q0-2.16-1-3.54t-3.28-1.42q-2.88,0-4.34,1.9t-1.46,5.26l0,9.16l-3.12,0l0-14.56q0-0.2-0.16-4.16l2.96,0q0.08,2.8,0.08,3.08l0.08,0q0.76-1.6,2.46-2.58t3.78-0.98z M264.92,28.8q4.16,0,6.5,2.62t2.38,7.42l0,0.76l-15.12,0q0.24,2.6,1.96,4.28t4.2,1.72q3.8,0,5.92-2.84l2.36,1.84q-1.48,1.92-3.48,2.9t-4.8,0.98q-4.28,0-6.88-2.78t-2.64-7.06q0-4.24,2.66-7t6.94-2.84z M270.44,36.96q-0.12-2.44-1.58-3.86t-4.1-1.42q-2.4,0-4.04,1.36t-2.04,3.92l11.76,0z M287.84,28.8q0.72,0,1.28,0.2l-0.2,3.16q-0.88-0.24-1.68-0.24q-2.72,0-4.1,1.78t-1.38,5.02l0,9.28l-3.12,0l0-14.56q0-0.56-0.16-4.16l2.96,0q0.08,2.8,0.08,3.08l0.08,0q0.76-1.6,2.46-2.58t3.78-0.98z M299.92,28.8q4.08,0,5.94,1.92t1.9,5.8l0,8.4q0,1.2,0.28,3.08l-3,0q-0.2-0.36-0.2-2.8l-0.08,0q-2.12,3.2-6.16,3.28q-3.08,0-5.02-1.54t-1.94-4.02q0-3.4,2.8-4.98t8.76-1.58l1.44,0l0-0.52q0-4.08-4.64-4.16q-3.36,0-5.56,2.04l-1.96-2.04q2.88-2.8,7.44-2.88z M295,42.6q0,3.16,4.12,3.24q2.44,0,3.98-1.56t1.54-4.56l0-0.72l-3.44,0q-2.76,0-4.46,0.88t-1.74,2.72z M318.2,23.96l0,5.32l5.52,0l0,2.64l-5.52,0l0,10q0,2.24,0.72,2.96t2.08,0.72q1.56,0,2.76-0.64l0.12,2.84q-1.6,0.68-3.64,0.68q-2.88,0-4.02-1.42t-1.14-4.66l0-10.48l-4.08,0l0-2.64l4.08,0l0-5.32l3.12,0z M336.48,28.8q4.36,0,7.12,2.7t2.88,7.14q0,4.28-2.8,7.02t-7.2,2.82q-4.4,0-7.16-2.78t-2.84-7.06q0-4.32,2.8-7.06t7.2-2.78z M329.84,38.64q0,3.08,1.86,4.98t4.78,1.98q2.92,0,4.76-1.94t1.88-5.02q0-3.04-1.86-5t-4.82-1.96q-2.88,0-4.72,1.94t-1.88,5.02z M360.52,28.8q0.72,0,1.28,0.2l-0.2,3.16q-0.88-0.24-1.68-0.24q-2.72,0-4.1,1.78t-1.38,5.02l0,9.28l-3.12,0l0-14.56q0-0.56-0.16-4.16l2.96,0q0.08,2.8,0.08,3.08l0.08,0q0.76-1.6,2.46-2.58t3.78-0.98z M369.68,19.68l0,20.4l-3.36,0l0-20.4l3.36,0z M370.4,45.84q0,0.96-0.72,1.68t-1.68,0.72q-0.92,0-1.66-0.72t-0.74-1.68q0-1,0.7-1.7t1.7-0.7t1.7,0.72t0.7,1.68z"/></g></svg>